<svg width="60" height="60" viewBox="0 0 60 60" fill="none" xmlns="http://www.w3.org/2000/svg">
<path d="M33.3147 30.0001L59.3135 4.00115C60.2288 3.0858 60.2288 1.60174 59.3135 0.686512C58.3981 -0.22872 56.9141 -0.228837 55.9988 0.686512L29.9999 26.6854L4.00115 0.686512C3.0858 -0.228837 1.60174 -0.228837 0.686512 0.686512C-0.22872 1.60186 -0.228837 3.08592 0.686512 4.00115L26.6853 29.9999L0.686512 55.9988C-0.228837 56.9142 -0.228837 58.3983 0.686512 59.3135C1.14413 59.7711 1.74401 59.9998 2.34389 59.9998C2.94377 59.9998 3.54353 59.7711 4.00127 59.3135L29.9999 33.3147L55.9987 59.3135C56.4563 59.7711 57.0562 59.9998 57.6561 59.9998C58.256 59.9998 58.8558 59.7711 59.3135 59.3135C60.2288 58.3981 60.2288 56.9141 59.3135 55.9988L33.3147 30.0001Z" fill="#282828"/>
</svg>
